<?xml version="1.0" encoding="UTF-8"?>
<svg xmlns="http://www.w3.org/2000/svg" xmlns:xlink="http://www.w3.org/1999/xlink" width="854" height="480" viewBox="0 0 854 480">
<defs>
<g>
<g id="glyph-0-0">
<path d="M 6.070312 -2.261719 C 6.070312 -1.570312 5.808594 -0.992188 5.289062 -0.527344 C 4.769531 -0.0625 4.109375 0.171875 3.300781 0.171875 C 2.457031 0.171875 1.78125 -0.09375 1.269531 -0.621094 C 0.757812 -1.152344 0.503906 -1.863281 0.503906 -2.753906 C 0.503906 -3.945312 0.90625 -4.929688 1.710938 -5.707031 C 2.511719 -6.484375 3.605469 -6.957031 4.984375 -7.117188 L 5.097656 -6.636719 L 4.578125 -6.546875 C 4.1875 -6.441406 3.855469 -6.292969 3.589844 -6.105469 C 3.324219 -5.917969 3.105469 -5.703125 2.933594 -5.464844 C 2.769531 -5.234375 2.636719 -4.972656 2.542969 -4.679688 C 2.449219 -4.390625 2.378906 -4.101562 2.328125 -3.820312 C 2.613281 -4.070312 2.894531 -4.242188 3.171875 -4.332031 C 3.449219 -4.417969 3.75 -4.460938 4.066406 -4.460938 C 4.628906 -4.460938 5.101562 -4.257812 5.488281 -3.851562 C 5.875 -3.441406 6.070312 -2.910156 6.070312 -2.261719 M 4.261719 -2.128906 C 4.261719 -2.644531 4.171875 -3.050781 3.992188 -3.355469 C 3.8125 -3.65625 3.570312 -3.808594 3.265625 -3.808594 C 3.066406 -3.808594 2.890625 -3.773438 2.742188 -3.707031 C 2.59375 -3.636719 2.445312 -3.496094 2.296875 -3.277344 C 2.296875 -3.261719 2.292969 -3.230469 2.292969 -3.191406 C 2.289062 -3.148438 2.289062 -3.097656 2.285156 -3.03125 C 2.28125 -2.960938 2.28125 -2.894531 2.277344 -2.832031 C 2.277344 -2.769531 2.273438 -2.71875 2.273438 -2.675781 C 2.273438 -1.894531 2.371094 -1.296875 2.5625 -0.882812 C 2.75 -0.464844 2.996094 -0.257812 3.296875 -0.257812 C 3.585938 -0.257812 3.820312 -0.421875 3.996094 -0.746094 C 4.175781 -1.074219 4.261719 -1.53125 4.261719 -2.128906 Z "/>
</g>
<g id="glyph-0-1">
<path d="M 5.78125 -4.550781 C 6.027344 -4.289062 6.210938 -3.992188 6.332031 -3.660156 C 6.449219 -3.324219 6.507812 -2.980469 6.507812 -2.621094 C 6.507812 -2.195312 6.433594 -1.8125 6.285156 -1.46875 C 6.136719 -1.125 5.9375 -0.832031 5.679688 -0.59375 C 5.410156 -0.347656 5.09375 -0.160156 4.734375 -0.03125 C 4.378906 0.101562 3.964844 0.164062 3.5 0.164062 C 3.007812 0.164062 2.574219 0.0898438 2.199219 -0.0625 C 1.824219 -0.214844 1.511719 -0.417969 1.257812 -0.667969 C 1.011719 -0.917969 0.824219 -1.207031 0.695312 -1.542969 C 0.566406 -1.878906 0.503906 -2.238281 0.503906 -2.621094 C 0.503906 -3.003906 0.5625 -3.355469 0.6875 -3.679688 C 0.808594 -4.007812 0.996094 -4.300781 1.25 -4.566406 C 1.496094 -4.824219 1.8125 -5.027344 2.191406 -5.183594 C 2.574219 -5.335938 3.011719 -5.414062 3.507812 -5.414062 C 4.015625 -5.414062 4.460938 -5.335938 4.84375 -5.175781 C 5.226562 -5.015625 5.539062 -4.808594 5.78125 -4.550781 M 4.40625 -0.914062 C 4.5 -1.132812 4.566406 -1.375 4.605469 -1.644531 C 4.648438 -1.910156 4.667969 -2.238281 4.667969 -2.621094 C 4.667969 -2.96875 4.648438 -3.277344 4.613281 -3.554688 C 4.574219 -3.832031 4.511719 -4.078125 4.421875 -4.292969 C 4.332031 -4.511719 4.210938 -4.683594 4.0625 -4.804688 C 3.914062 -4.925781 3.730469 -4.984375 3.511719 -4.984375 C 3.289062 -4.984375 3.105469 -4.925781 2.953125 -4.808594 C 2.804688 -4.6875 2.683594 -4.519531 2.585938 -4.300781 C 2.503906 -4.101562 2.441406 -3.859375 2.402344 -3.570312 C 2.363281 -3.285156 2.34375 -2.96875 2.34375 -2.621094 C 2.34375 -2.261719 2.359375 -1.953125 2.394531 -1.699219 C 2.429688 -1.445312 2.492188 -1.199219 2.582031 -0.96875 C 2.664062 -0.753906 2.78125 -0.585938 2.933594 -0.453125 C 3.085938 -0.324219 3.277344 -0.257812 3.5 -0.257812 C 3.710938 -0.257812 3.890625 -0.316406 4.042969 -0.433594 C 4.195312 -0.550781 4.316406 -0.710938 4.40625 -0.914062 Z "/>
</g>
</g>
</defs>
<g fill="rgb(100%, 100%, 100%)" fill-opacity="1">
<use xlink:href="#glyph-0-0" x="30" y="29.169922"/>
<use xlink:href="#glyph-0-1" x="36" y="29.169922"/>
</g>
</svg>
