<?xml version="1.0" encoding="UTF-8"?>
<svg xmlns="http://www.w3.org/2000/svg" xmlns:xlink="http://www.w3.org/1999/xlink" width="854" height="480" viewBox="0 0 854 480">
<defs>
<g>
<g id="glyph-0-0">
<path d="M 3.96875 0.191406 C 3.460938 0.191406 2.988281 0.109375 2.542969 -0.0546875 C 2.101562 -0.222656 1.714844 -0.460938 1.386719 -0.773438 C 1.0625 -1.078125 0.8125 -1.457031 0.625 -1.910156 C 0.4375 -2.359375 0.347656 -2.855469 0.347656 -3.398438 C 0.347656 -3.9375 0.441406 -4.433594 0.628906 -4.890625 C 0.816406 -5.351562 1.078125 -5.746094 1.414062 -6.082031 C 1.75 -6.410156 2.148438 -6.667969 2.613281 -6.847656 C 3.078125 -7.027344 3.574219 -7.117188 4.105469 -7.117188 C 4.492188 -7.117188 4.839844 -7.070312 5.15625 -6.976562 C 5.472656 -6.882812 5.738281 -6.777344 5.957031 -6.660156 L 6.257812 -6.929688 L 6.683594 -6.929688 L 6.726562 -4.398438 L 6.296875 -4.398438 C 6.054688 -5.171875 5.761719 -5.738281 5.421875 -6.101562 C 5.078125 -6.464844 4.664062 -6.644531 4.171875 -6.644531 C 3.5625 -6.644531 3.097656 -6.375 2.777344 -5.835938 C 2.460938 -5.296875 2.300781 -4.539062 2.300781 -3.5625 C 2.300781 -3.011719 2.355469 -2.542969 2.464844 -2.152344 C 2.570312 -1.765625 2.714844 -1.449219 2.890625 -1.210938 C 3.078125 -0.964844 3.300781 -0.78125 3.558594 -0.667969 C 3.816406 -0.550781 4.097656 -0.492188 4.410156 -0.492188 C 4.867188 -0.492188 5.273438 -0.617188 5.628906 -0.863281 C 5.984375 -1.113281 6.308594 -1.484375 6.601562 -1.988281 L 7.023438 -1.734375 C 6.882812 -1.445312 6.722656 -1.191406 6.542969 -0.964844 C 6.363281 -0.738281 6.15625 -0.542969 5.921875 -0.382812 C 5.664062 -0.203125 5.382812 -0.0625 5.070312 0.0390625 C 4.761719 0.140625 4.394531 0.191406 3.96875 0.191406 Z "/>
</g>
<g id="glyph-0-1">
<path d="M 5.269531 -4.265625 C 5.507812 -4.042969 5.695312 -3.773438 5.820312 -3.460938 C 5.945312 -3.148438 6.011719 -2.8125 6.011719 -2.445312 C 6.011719 -2.085938 5.949219 -1.742188 5.824219 -1.421875 C 5.699219 -1.101562 5.515625 -0.828125 5.273438 -0.601562 C 5.015625 -0.355469 4.710938 -0.167969 4.351562 -0.0390625 C 3.996094 0.0898438 3.589844 0.15625 3.128906 0.15625 C 2.734375 0.15625 2.367188 0.0976562 2.035156 -0.015625 C 1.699219 -0.128906 1.40625 -0.300781 1.148438 -0.527344 C 0.898438 -0.746094 0.703125 -1.015625 0.5625 -1.335938 C 0.417969 -1.65625 0.347656 -2.015625 0.347656 -2.414062 C 0.347656 -2.804688 0.410156 -3.148438 0.535156 -3.453125 C 0.660156 -3.757812 0.847656 -4.03125 1.097656 -4.265625 C 1.339844 -4.496094 1.636719 -4.671875 1.988281 -4.796875 C 2.34375 -4.921875 2.738281 -4.984375 3.171875 -4.984375 C 3.628906 -4.984375 4.03125 -4.921875 4.378906 -4.796875 C 4.722656 -4.671875 5.019531 -4.496094 5.269531 -4.265625 M 4.019531 -0.882812 C 4.089844 -1.066406 4.144531 -1.289062 4.175781 -1.546875 C 4.210938 -1.808594 4.226562 -2.109375 4.226562 -2.457031 C 4.226562 -2.683594 4.210938 -2.945312 4.179688 -3.238281 C 4.148438 -3.53125 4.097656 -3.761719 4.03125 -3.929688 C 3.953125 -4.136719 3.847656 -4.296875 3.707031 -4.414062 C 3.570312 -4.53125 3.394531 -4.589844 3.183594 -4.589844 C 2.953125 -4.589844 2.769531 -4.527344 2.628906 -4.398438 C 2.492188 -4.273438 2.382812 -4.109375 2.308594 -3.90625 C 2.242188 -3.71875 2.195312 -3.503906 2.167969 -3.253906 C 2.140625 -3.003906 2.128906 -2.746094 2.128906 -2.476562 C 2.128906 -2.121094 2.140625 -1.828125 2.164062 -1.59375 C 2.1875 -1.363281 2.242188 -1.128906 2.328125 -0.894531 C 2.402344 -0.691406 2.511719 -0.53125 2.652344 -0.414062 C 2.792969 -0.296875 2.96875 -0.238281 3.183594 -0.238281 C 3.378906 -0.238281 3.546875 -0.292969 3.6875 -0.402344 C 3.828125 -0.511719 3.9375 -0.671875 4.019531 -0.882812 Z "/>
</g>
<g id="glyph-0-2">
<path d="M 6.726562 0 L 3.792969 0 L 3.792969 -0.355469 C 3.855469 -0.363281 3.929688 -0.371094 4.019531 -0.382812 C 4.105469 -0.390625 4.171875 -0.40625 4.21875 -0.429688 C 4.285156 -0.464844 4.335938 -0.515625 4.367188 -0.585938 C 4.394531 -0.65625 4.410156 -0.753906 4.410156 -0.890625 L 4.410156 -3.171875 C 4.410156 -3.507812 4.347656 -3.753906 4.226562 -3.921875 C 4.101562 -4.089844 3.921875 -4.175781 3.683594 -4.175781 C 3.554688 -4.175781 3.433594 -4.15625 3.320312 -4.117188 C 3.207031 -4.078125 3.097656 -4.019531 2.988281 -3.945312 C 2.894531 -3.878906 2.820312 -3.8125 2.761719 -3.746094 C 2.703125 -3.675781 2.65625 -3.617188 2.617188 -3.5625 L 2.617188 -0.941406 C 2.617188 -0.828125 2.632812 -0.734375 2.664062 -0.65625 C 2.699219 -0.582031 2.753906 -0.523438 2.828125 -0.484375 C 2.878906 -0.453125 2.945312 -0.429688 3.023438 -0.40625 C 3.101562 -0.382812 3.175781 -0.367188 3.25 -0.355469 L 3.25 0 L 0.28125 0 L 0.28125 -0.355469 C 0.363281 -0.363281 0.445312 -0.371094 0.53125 -0.382812 C 0.613281 -0.394531 0.683594 -0.410156 0.742188 -0.429688 C 0.847656 -0.464844 0.917969 -0.519531 0.957031 -0.59375 C 0.996094 -0.671875 1.015625 -0.769531 1.015625 -0.890625 L 1.015625 -3.730469 C 1.015625 -3.832031 0.988281 -3.929688 0.9375 -4.027344 C 0.886719 -4.125 0.816406 -4.207031 0.734375 -4.265625 C 0.671875 -4.304688 0.601562 -4.339844 0.511719 -4.367188 C 0.421875 -4.390625 0.320312 -4.410156 0.214844 -4.417969 L 0.214844 -4.773438 L 2.542969 -4.902344 L 2.617188 -4.828125 L 2.617188 -4.121094 L 2.636719 -4.121094 C 2.726562 -4.203125 2.839844 -4.300781 2.96875 -4.414062 C 3.097656 -4.527344 3.21875 -4.621094 3.328125 -4.691406 C 3.449219 -4.769531 3.609375 -4.835938 3.804688 -4.890625 C 4 -4.949219 4.207031 -4.976562 4.429688 -4.976562 C 4.960938 -4.976562 5.355469 -4.824219 5.621094 -4.523438 C 5.886719 -4.222656 6.019531 -3.824219 6.019531 -3.324219 L 6.019531 -0.933594 C 6.019531 -0.8125 6.039062 -0.714844 6.074219 -0.644531 C 6.109375 -0.574219 6.175781 -0.515625 6.273438 -0.472656 C 6.328125 -0.449219 6.390625 -0.429688 6.46875 -0.40625 C 6.542969 -0.382812 6.632812 -0.367188 6.726562 -0.355469 Z "/>
</g>
<g id="glyph-0-3">
<path d="M 2.6875 -0.578125 C 2.6875 -0.242188 2.628906 0.0976562 2.515625 0.4375 C 2.402344 0.78125 2.238281 1.074219 2.027344 1.320312 C 1.796875 1.585938 1.515625 1.792969 1.1875 1.945312 C 0.859375 2.09375 0.484375 2.167969 0.0625 2.167969 C -0.332031 2.167969 -0.632812 2.09375 -0.847656 1.941406 C -1.058594 1.789062 -1.167969 1.585938 -1.167969 1.328125 C -1.167969 1.238281 -1.15625 1.152344 -1.136719 1.074219 C -1.113281 0.996094 -1.070312 0.914062 -1 0.828125 C -0.949219 0.757812 -0.867188 0.699219 -0.757812 0.648438 C -0.648438 0.597656 -0.527344 0.570312 -0.390625 0.570312 C -0.121094 0.570312 0.0859375 0.667969 0.234375 0.863281 C 0.382812 1.054688 0.53125 1.347656 0.683594 1.734375 C 0.816406 1.660156 0.914062 1.5 0.980469 1.253906 C 1.042969 1.011719 1.074219 0.480469 1.074219 -0.335938 L 1.074219 -3.710938 C 1.074219 -3.824219 1.050781 -3.925781 1 -4.011719 C 0.953125 -4.097656 0.886719 -4.171875 0.800781 -4.226562 C 0.738281 -4.269531 0.640625 -4.3125 0.503906 -4.347656 C 0.371094 -4.386719 0.25 -4.410156 0.148438 -4.417969 L 0.148438 -4.773438 L 2.613281 -4.902344 L 2.6875 -4.828125 L 2.6875 -0.578125 M 2.703125 -6.660156 C 2.703125 -6.414062 2.609375 -6.203125 2.417969 -6.027344 C 2.230469 -5.855469 2.003906 -5.765625 1.742188 -5.765625 C 1.480469 -5.765625 1.253906 -5.855469 1.0625 -6.027344 C 0.871094 -6.203125 0.777344 -6.414062 0.777344 -6.660156 C 0.777344 -6.90625 0.871094 -7.117188 1.0625 -7.296875 C 1.253906 -7.46875 1.480469 -7.558594 1.742188 -7.558594 C 2.007812 -7.558594 2.234375 -7.46875 2.421875 -7.296875 C 2.609375 -7.117188 2.703125 -6.90625 2.703125 -6.660156 Z "/>
</g>
<g id="glyph-0-4">
<path d="M 6.648438 -0.101562 L 4.320312 0.0390625 L 4.25 -0.03125 L 4.25 -0.667969 L 4.21875 -0.667969 C 4.109375 -0.566406 4 -0.46875 3.894531 -0.375 C 3.789062 -0.277344 3.664062 -0.191406 3.515625 -0.113281 C 3.351562 -0.0234375 3.195312 0.0390625 3.046875 0.0820312 C 2.898438 0.125 2.683594 0.144531 2.398438 0.148438 C 1.910156 0.144531 1.53125 0 1.269531 -0.296875 C 1.007812 -0.59375 0.878906 -1.011719 0.878906 -1.554688 L 0.878906 -3.75 C 0.878906 -3.875 0.855469 -3.980469 0.804688 -4.058594 C 0.757812 -4.140625 0.691406 -4.210938 0.613281 -4.273438 C 0.546875 -4.320312 0.464844 -4.355469 0.359375 -4.378906 C 0.257812 -4.398438 0.164062 -4.414062 0.078125 -4.417969 L 0.078125 -4.773438 L 2.4375 -4.902344 L 2.492188 -4.828125 L 2.492188 -1.582031 C 2.488281 -1.246094 2.554688 -1 2.683594 -0.839844 C 2.8125 -0.679688 2.988281 -0.601562 3.210938 -0.601562 C 3.445312 -0.601562 3.652344 -0.660156 3.835938 -0.78125 C 4.019531 -0.902344 4.152344 -1.03125 4.238281 -1.167969 L 4.238281 -3.796875 C 4.238281 -3.910156 4.21875 -4.007812 4.175781 -4.097656 C 4.132812 -4.183594 4.070312 -4.257812 3.988281 -4.3125 C 3.929688 -4.351562 3.847656 -4.375 3.738281 -4.390625 C 3.628906 -4.402344 3.515625 -4.414062 3.402344 -4.417969 L 3.402344 -4.773438 L 5.777344 -4.902344 L 5.851562 -4.828125 L 5.851562 -1.058594 C 5.851562 -0.945312 5.871094 -0.847656 5.917969 -0.769531 C 5.960938 -0.6875 6.027344 -0.621094 6.117188 -0.566406 C 6.179688 -0.527344 6.257812 -0.5 6.355469 -0.484375 C 6.457031 -0.472656 6.554688 -0.460938 6.648438 -0.460938 Z "/>
</g>
<g id="glyph-0-5">
<path d="M 3.914062 -0.226562 C 3.707031 -0.132812 3.484375 -0.0507812 3.246094 0.0234375 C 3.007812 0.09375 2.71875 0.132812 2.378906 0.132812 C 1.871094 0.132812 1.492188 0.0078125 1.246094 -0.238281 C 1 -0.484375 0.878906 -0.839844 0.878906 -1.296875 L 0.878906 -4.292969 L 0 -4.292969 L 0 -4.824219 L 0.898438 -4.824219 L 0.898438 -6.304688 L 2.480469 -6.304688 L 2.480469 -4.824219 L 3.851562 -4.824219 L 3.851562 -4.292969 L 2.492188 -4.292969 L 2.492188 -1.621094 C 2.488281 -1.238281 2.542969 -0.96875 2.648438 -0.808594 C 2.753906 -0.652344 2.945312 -0.570312 3.21875 -0.570312 C 3.308594 -0.570312 3.429688 -0.578125 3.585938 -0.589844 C 3.746094 -0.605469 3.855469 -0.617188 3.914062 -0.632812 Z "/>
</g>
<g id="glyph-0-6">
<path d="M 2.542969 0.164062 C 2.226562 0.164062 1.917969 0.121094 1.617188 0.0273438 C 1.316406 -0.0664062 1.085938 -0.164062 0.917969 -0.269531 L 0.773438 0.0625 L 0.390625 0.0625 L 0.328125 -1.757812 L 0.683594 -1.757812 C 0.734375 -1.609375 0.8125 -1.445312 0.929688 -1.261719 C 1.042969 -1.078125 1.171875 -0.914062 1.320312 -0.765625 C 1.472656 -0.621094 1.644531 -0.496094 1.84375 -0.394531 C 2.039062 -0.292969 2.25 -0.242188 2.476562 -0.242188 C 2.773438 -0.242188 2.992188 -0.300781 3.136719 -0.417969 C 3.28125 -0.53125 3.355469 -0.710938 3.355469 -0.953125 C 3.355469 -1.082031 3.320312 -1.191406 3.257812 -1.273438 C 3.191406 -1.359375 3.101562 -1.433594 2.988281 -1.492188 C 2.859375 -1.558594 2.722656 -1.613281 2.570312 -1.660156 C 2.417969 -1.707031 2.234375 -1.761719 2.011719 -1.828125 C 1.789062 -1.890625 1.601562 -1.957031 1.441406 -2.023438 C 1.285156 -2.089844 1.121094 -2.195312 0.953125 -2.339844 C 0.804688 -2.464844 0.6875 -2.617188 0.601562 -2.796875 C 0.511719 -2.976562 0.46875 -3.191406 0.46875 -3.4375 C 0.46875 -3.898438 0.660156 -4.265625 1.046875 -4.550781 C 1.433594 -4.835938 1.9375 -4.976562 2.5625 -4.976562 C 2.859375 -4.976562 3.132812 -4.945312 3.382812 -4.886719 C 3.628906 -4.824219 3.839844 -4.757812 4.007812 -4.6875 L 4.109375 -4.976562 L 4.484375 -4.976562 L 4.5625 -3.3125 L 4.21875 -3.3125 C 4.105469 -3.648438 3.910156 -3.941406 3.632812 -4.1875 C 3.355469 -4.433594 3.058594 -4.554688 2.738281 -4.554688 C 2.488281 -4.554688 2.292969 -4.503906 2.148438 -4.398438 C 2.003906 -4.296875 1.933594 -4.148438 1.933594 -3.964844 C 1.933594 -3.71875 2.039062 -3.539062 2.246094 -3.429688 C 2.457031 -3.316406 2.75 -3.210938 3.128906 -3.117188 C 3.710938 -2.964844 4.136719 -2.761719 4.40625 -2.503906 C 4.675781 -2.242188 4.808594 -1.914062 4.808594 -1.515625 C 4.808594 -0.980469 4.601562 -0.566406 4.183594 -0.273438 C 3.765625 0.0195312 3.21875 0.164062 2.542969 0.164062 Z "/>
</g>
</g>
</defs>
<g fill="rgb(100%, 100%, 100%)" fill-opacity="1">
<use xlink:href="#glyph-0-0" x="30" y="29.169922"/>
<use xlink:href="#glyph-0-1" x="37" y="29.169922"/>
<use xlink:href="#glyph-0-2" x="43" y="29.169922"/>
<use xlink:href="#glyph-0-3" x="50" y="29.169922"/>
<use xlink:href="#glyph-0-4" x="53" y="29.169922"/>
<use xlink:href="#glyph-0-2" x="60" y="29.169922"/>
<use xlink:href="#glyph-0-5" x="67" y="29.169922"/>
<use xlink:href="#glyph-0-1" x="71" y="29.169922"/>
<use xlink:href="#glyph-0-6" x="77" y="29.169922"/>
</g>
</svg>
