<?xml version="1.0" encoding="UTF-8"?>
<svg xmlns="http://www.w3.org/2000/svg" xmlns:xlink="http://www.w3.org/1999/xlink" width="854" height="480" viewBox="0 0 854 480">
<defs>
<g>
<g id="glyph-0-0">
<path d="M 2.929688 -0.046875 L 1.859375 0.015625 L 1.828125 -0.0117188 L 1.828125 -0.210938 L 1.8125 -0.21875 C 1.742188 -0.140625 1.644531 -0.0742188 1.523438 -0.015625 C 1.402344 0.0390625 1.28125 0.0703125 1.160156 0.0703125 C 0.867188 0.0703125 0.628906 -0.0390625 0.4375 -0.257812 C 0.25 -0.472656 0.152344 -0.753906 0.152344 -1.097656 C 0.152344 -1.402344 0.261719 -1.664062 0.472656 -1.882812 C 0.683594 -2.101562 0.9375 -2.210938 1.238281 -2.210938 C 1.359375 -2.210938 1.46875 -2.199219 1.574219 -2.171875 C 1.675781 -2.144531 1.761719 -2.113281 1.824219 -2.078125 L 1.824219 -2.785156 C 1.824219 -2.839844 1.8125 -2.890625 1.789062 -2.9375 C 1.769531 -2.984375 1.738281 -3.019531 1.703125 -3.046875 C 1.660156 -3.078125 1.601562 -3.101562 1.535156 -3.113281 C 1.46875 -3.128906 1.398438 -3.136719 1.332031 -3.144531 L 1.332031 -3.300781 L 2.507812 -3.359375 L 2.539062 -3.324219 L 2.539062 -0.480469 C 2.539062 -0.425781 2.546875 -0.378906 2.566406 -0.339844 C 2.582031 -0.304688 2.613281 -0.273438 2.652344 -0.25 C 2.683594 -0.234375 2.726562 -0.222656 2.785156 -0.21875 C 2.84375 -0.210938 2.890625 -0.207031 2.929688 -0.203125 L 2.929688 -0.046875 M 1.824219 -0.433594 L 1.824219 -1.65625 C 1.8125 -1.691406 1.796875 -1.726562 1.78125 -1.769531 C 1.761719 -1.808594 1.738281 -1.847656 1.707031 -1.882812 C 1.675781 -1.914062 1.636719 -1.941406 1.589844 -1.964844 C 1.542969 -1.988281 1.488281 -2 1.425781 -2 C 1.28125 -2 1.164062 -1.917969 1.070312 -1.753906 C 0.980469 -1.589844 0.933594 -1.359375 0.933594 -1.0625 C 0.933594 -0.945312 0.941406 -0.839844 0.957031 -0.746094 C 0.972656 -0.652344 1.003906 -0.566406 1.046875 -0.492188 C 1.085938 -0.414062 1.140625 -0.355469 1.207031 -0.308594 C 1.273438 -0.265625 1.351562 -0.246094 1.445312 -0.246094 C 1.53125 -0.246094 1.605469 -0.261719 1.664062 -0.296875 C 1.71875 -0.332031 1.773438 -0.375 1.824219 -0.433594 Z "/>
</g>
<g id="glyph-0-1">
</g>
<g id="glyph-0-2">
<path d="M 2.722656 -1.515625 L 0.402344 -1.515625 L 0.402344 -1.871094 L 2.722656 -1.871094 L 2.722656 -1.515625 M 2.722656 -0.617188 L 0.402344 -0.617188 L 0.402344 -0.972656 L 2.722656 -0.972656 Z "/>
</g>
<g id="glyph-0-3">
<path d="M 2.589844 0 L 0.238281 0 L 0.238281 -0.394531 C 0.339844 -0.496094 0.453125 -0.59375 0.578125 -0.679688 C 0.699219 -0.765625 0.824219 -0.839844 0.949219 -0.90625 C 1.085938 -0.976562 1.195312 -1.042969 1.289062 -1.097656 C 1.378906 -1.152344 1.453125 -1.210938 1.503906 -1.273438 C 1.554688 -1.328125 1.59375 -1.390625 1.617188 -1.457031 C 1.636719 -1.523438 1.648438 -1.597656 1.648438 -1.679688 C 1.648438 -1.863281 1.605469 -1.996094 1.519531 -2.082031 C 1.429688 -2.164062 1.316406 -2.207031 1.171875 -2.207031 C 1.128906 -2.207031 1.085938 -2.203125 1.046875 -2.195312 C 1.003906 -2.191406 0.964844 -2.179688 0.921875 -2.160156 C 0.941406 -2.097656 0.960938 -2.027344 0.984375 -1.960938 C 1.003906 -1.890625 1.011719 -1.8125 1.011719 -1.726562 C 1.011719 -1.625 0.976562 -1.542969 0.902344 -1.480469 C 0.828125 -1.421875 0.734375 -1.390625 0.621094 -1.390625 C 0.511719 -1.390625 0.425781 -1.425781 0.359375 -1.496094 C 0.296875 -1.566406 0.265625 -1.652344 0.265625 -1.753906 C 0.265625 -1.933594 0.367188 -2.085938 0.574219 -2.214844 C 0.777344 -2.34375 1.027344 -2.40625 1.324219 -2.40625 C 1.664062 -2.40625 1.941406 -2.347656 2.152344 -2.230469 C 2.363281 -2.113281 2.46875 -1.925781 2.46875 -1.664062 C 2.46875 -1.53125 2.4375 -1.421875 2.382812 -1.339844 C 2.328125 -1.257812 2.246094 -1.183594 2.136719 -1.121094 C 2.039062 -1.066406 1.933594 -1.019531 1.816406 -0.984375 C 1.695312 -0.945312 1.570312 -0.910156 1.4375 -0.878906 C 1.292969 -0.84375 1.167969 -0.804688 1.0625 -0.765625 C 0.957031 -0.722656 0.863281 -0.675781 0.777344 -0.617188 L 0.777344 -0.59375 L 2.589844 -0.59375 Z "/>
</g>
<g id="glyph-0-4">
<path d="M 2.734375 -0.0234375 L 2.269531 -0.0234375 L 2.269531 0.800781 L 1.542969 0.800781 L 1.542969 -0.0234375 L 0.105469 -0.0234375 L 0.105469 -0.421875 L 1.664062 -2.394531 L 2.269531 -2.394531 L 2.269531 -0.480469 L 2.734375 -0.480469 L 2.734375 -0.0234375 M 1.542969 -0.480469 L 1.542969 -1.875 L 0.441406 -0.480469 Z "/>
</g>
<g id="glyph-0-5">
<path d="M 1.160156 -0.359375 C 1.160156 -0.246094 1.117188 -0.148438 1.03125 -0.0625 C 0.945312 0.0195312 0.847656 0.0625 0.730469 0.0625 C 0.613281 0.0625 0.511719 0.0195312 0.429688 -0.0625 C 0.34375 -0.144531 0.300781 -0.246094 0.300781 -0.359375 C 0.300781 -0.476562 0.34375 -0.574219 0.429688 -0.660156 C 0.511719 -0.746094 0.613281 -0.789062 0.730469 -0.789062 C 0.847656 -0.789062 0.945312 -0.746094 1.03125 -0.660156 C 1.117188 -0.574219 1.160156 -0.472656 1.160156 -0.359375 Z "/>
</g>
<g id="glyph-0-6">
<path d="M 4.433594 0 L 3.144531 0 L 3.144531 -0.160156 C 3.179688 -0.164062 3.210938 -0.167969 3.246094 -0.167969 C 3.28125 -0.171875 3.308594 -0.179688 3.332031 -0.191406 C 3.363281 -0.207031 3.382812 -0.230469 3.390625 -0.261719 C 3.398438 -0.296875 3.40625 -0.339844 3.40625 -0.394531 L 3.40625 -1.410156 C 3.40625 -1.558594 3.378906 -1.667969 3.324219 -1.742188 C 3.273438 -1.816406 3.195312 -1.855469 3.097656 -1.855469 C 3.035156 -1.855469 2.980469 -1.84375 2.929688 -1.824219 C 2.882812 -1.804688 2.839844 -1.78125 2.796875 -1.753906 C 2.753906 -1.722656 2.722656 -1.691406 2.699219 -1.664062 C 2.675781 -1.632812 2.65625 -1.605469 2.640625 -1.585938 L 2.640625 -0.417969 C 2.640625 -0.367188 2.648438 -0.324219 2.660156 -0.292969 C 2.671875 -0.257812 2.695312 -0.234375 2.726562 -0.214844 C 2.75 -0.203125 2.777344 -0.191406 2.804688 -0.179688 C 2.835938 -0.171875 2.867188 -0.164062 2.898438 -0.160156 L 2.898438 0 L 1.667969 0 L 1.667969 -0.160156 C 1.695312 -0.160156 1.726562 -0.164062 1.765625 -0.167969 C 1.804688 -0.171875 1.832031 -0.179688 1.851562 -0.191406 C 1.882812 -0.207031 1.902344 -0.230469 1.910156 -0.261719 C 1.921875 -0.289062 1.925781 -0.335938 1.925781 -0.394531 L 1.925781 -1.410156 C 1.925781 -1.558594 1.898438 -1.667969 1.84375 -1.742188 C 1.792969 -1.816406 1.714844 -1.855469 1.617188 -1.855469 C 1.554688 -1.855469 1.5 -1.84375 1.453125 -1.824219 C 1.402344 -1.804688 1.359375 -1.78125 1.316406 -1.753906 C 1.277344 -1.722656 1.242188 -1.691406 1.21875 -1.664062 C 1.195312 -1.632812 1.175781 -1.605469 1.160156 -1.585938 L 1.160156 -0.417969 C 1.160156 -0.367188 1.167969 -0.328125 1.179688 -0.292969 C 1.195312 -0.257812 1.214844 -0.234375 1.25 -0.214844 C 1.273438 -0.203125 1.300781 -0.191406 1.328125 -0.179688 C 1.359375 -0.171875 1.390625 -0.164062 1.421875 -0.160156 L 1.421875 0 L 0.125 0 L 0.125 -0.160156 C 0.160156 -0.160156 0.199219 -0.164062 0.234375 -0.167969 C 0.269531 -0.171875 0.300781 -0.179688 0.328125 -0.191406 C 0.375 -0.207031 0.40625 -0.234375 0.421875 -0.265625 C 0.441406 -0.296875 0.449219 -0.339844 0.449219 -0.394531 L 0.449219 -1.65625 C 0.449219 -1.703125 0.4375 -1.75 0.414062 -1.792969 C 0.386719 -1.835938 0.359375 -1.871094 0.324219 -1.898438 C 0.296875 -1.914062 0.265625 -1.929688 0.222656 -1.941406 C 0.183594 -1.953125 0.140625 -1.960938 0.09375 -1.964844 L 0.09375 -2.121094 L 1.128906 -2.179688 L 1.160156 -2.144531 L 1.160156 -1.839844 L 1.167969 -1.839844 C 1.210938 -1.875 1.257812 -1.917969 1.3125 -1.96875 C 1.371094 -2.019531 1.421875 -2.058594 1.472656 -2.089844 C 1.523438 -2.125 1.59375 -2.152344 1.675781 -2.175781 C 1.761719 -2.199219 1.851562 -2.210938 1.953125 -2.210938 C 2.117188 -2.210938 2.253906 -2.175781 2.367188 -2.105469 C 2.476562 -2.03125 2.554688 -1.9375 2.601562 -1.820312 L 2.621094 -1.820312 C 2.664062 -1.859375 2.714844 -1.902344 2.773438 -1.957031 C 2.835938 -2.007812 2.890625 -2.050781 2.941406 -2.082031 C 3 -2.121094 3.070312 -2.148438 3.160156 -2.175781 C 3.246094 -2.199219 3.339844 -2.210938 3.4375 -2.210938 C 3.65625 -2.210938 3.824219 -2.148438 3.945312 -2.019531 C 4.0625 -1.890625 4.121094 -1.707031 4.121094 -1.46875 L 4.121094 -0.414062 C 4.121094 -0.359375 4.128906 -0.316406 4.144531 -0.285156 C 4.160156 -0.253906 4.1875 -0.226562 4.230469 -0.210938 C 4.253906 -0.199219 4.28125 -0.191406 4.316406 -0.179688 C 4.351562 -0.171875 4.390625 -0.164062 4.433594 -0.160156 Z "/>
</g>
</g>
</defs>
<g fill="rgb(100%, 100%, 100%)" fill-opacity="1">
<use xlink:href="#glyph-0-0" x="30" y="24.074219"/>
<use xlink:href="#glyph-0-1" x="33" y="24.074219"/>
<use xlink:href="#glyph-0-2" x="34" y="24.074219"/>
<use xlink:href="#glyph-0-1" x="37" y="24.074219"/>
<use xlink:href="#glyph-0-3" x="38" y="24.074219"/>
<use xlink:href="#glyph-0-4" x="41" y="24.074219"/>
<use xlink:href="#glyph-0-5" x="44" y="24.074219"/>
<use xlink:href="#glyph-0-3" x="45" y="24.074219"/>
<use xlink:href="#glyph-0-1" x="48" y="24.074219"/>
<use xlink:href="#glyph-0-6" x="49" y="24.074219"/>
<use xlink:href="#glyph-0-6" x="54" y="24.074219"/>
</g>
</svg>
