<?xml version="1.0" encoding="UTF-8"?>
<svg xmlns="http://www.w3.org/2000/svg" xmlns:xlink="http://www.w3.org/1999/xlink" width="1920" height="1080" viewBox="0 0 1920 1080">
<defs>
<g>
<g id="glyph-0-0">
<path d="M 4.363281 0 L 2.269531 0 L 2.269531 -0.210938 C 2.367188 -0.21875 2.480469 -0.238281 2.613281 -0.265625 C 2.742188 -0.292969 2.808594 -0.328125 2.808594 -0.367188 C 2.808594 -0.382812 2.808594 -0.398438 2.804688 -0.417969 C 2.800781 -0.4375 2.796875 -0.460938 2.78125 -0.492188 L 2.453125 -1.289062 L 1.125 -1.289062 C 1.09375 -1.214844 1.0625 -1.128906 1.023438 -1.027344 C 0.988281 -0.929688 0.953125 -0.839844 0.929688 -0.761719 C 0.894531 -0.660156 0.875 -0.585938 0.867188 -0.542969 C 0.859375 -0.496094 0.859375 -0.464844 0.859375 -0.449219 C 0.859375 -0.390625 0.902344 -0.339844 0.988281 -0.300781 C 1.078125 -0.257812 1.222656 -0.230469 1.425781 -0.210938 L 1.425781 0 L -0.152344 0 L -0.152344 -0.210938 C -0.09375 -0.214844 -0.0234375 -0.226562 0.0507812 -0.238281 C 0.125 -0.253906 0.183594 -0.277344 0.226562 -0.304688 C 0.300781 -0.347656 0.363281 -0.402344 0.417969 -0.464844 C 0.46875 -0.527344 0.511719 -0.601562 0.546875 -0.6875 C 0.753906 -1.199219 0.964844 -1.707031 1.175781 -2.214844 C 1.386719 -2.726562 1.621094 -3.289062 1.875 -3.902344 L 2.417969 -3.902344 C 2.773438 -3.03125 3.050781 -2.34375 3.25 -1.835938 C 3.449219 -1.332031 3.621094 -0.910156 3.761719 -0.578125 C 3.785156 -0.523438 3.816406 -0.472656 3.851562 -0.429688 C 3.886719 -0.386719 3.941406 -0.34375 4.007812 -0.304688 C 4.058594 -0.273438 4.117188 -0.253906 4.183594 -0.238281 C 4.25 -0.222656 4.3125 -0.214844 4.363281 -0.210938 L 4.363281 0 M 2.34375 -1.558594 L 1.785156 -2.949219 L 1.234375 -1.558594 Z "/>
</g>
<g id="glyph-0-1">
</g>
<g id="glyph-0-2">
<path d="M 3.585938 -1.765625 C 3.703125 -1.6875 3.796875 -1.585938 3.867188 -1.464844 C 3.941406 -1.347656 3.976562 -1.203125 3.976562 -1.042969 C 3.976562 -0.847656 3.9375 -0.679688 3.855469 -0.546875 C 3.769531 -0.410156 3.652344 -0.304688 3.5 -0.226562 C 3.335938 -0.144531 3.148438 -0.0859375 2.9375 -0.0507812 C 2.722656 -0.015625 2.472656 0 2.1875 0 L 0.1875 0 L 0.1875 -0.210938 C 0.242188 -0.21875 0.3125 -0.226562 0.398438 -0.234375 C 0.484375 -0.246094 0.542969 -0.257812 0.578125 -0.273438 C 0.644531 -0.300781 0.691406 -0.335938 0.714844 -0.382812 C 0.738281 -0.425781 0.75 -0.484375 0.75 -0.554688 L 0.75 -3.265625 C 0.75 -3.332031 0.742188 -3.386719 0.722656 -3.429688 C 0.703125 -3.472656 0.652344 -3.511719 0.578125 -3.542969 C 0.523438 -3.566406 0.457031 -3.585938 0.382812 -3.601562 C 0.308594 -3.617188 0.242188 -3.628906 0.1875 -3.636719 L 0.1875 -3.847656 L 2.277344 -3.847656 C 2.804688 -3.847656 3.183594 -3.777344 3.417969 -3.632812 C 3.652344 -3.488281 3.769531 -3.273438 3.769531 -2.992188 C 3.769531 -2.863281 3.742188 -2.746094 3.691406 -2.648438 C 3.636719 -2.550781 3.5625 -2.464844 3.464844 -2.394531 C 3.375 -2.324219 3.269531 -2.269531 3.148438 -2.21875 C 3.023438 -2.171875 2.890625 -2.128906 2.75 -2.097656 L 2.75 -2.046875 C 2.890625 -2.03125 3.039062 -2 3.191406 -1.953125 C 3.34375 -1.902344 3.472656 -1.84375 3.585938 -1.765625 M 2.710938 -2.925781 C 2.710938 -3.136719 2.652344 -3.304688 2.53125 -3.421875 C 2.414062 -3.542969 2.230469 -3.601562 1.992188 -3.601562 C 1.957031 -3.601562 1.914062 -3.601562 1.855469 -3.597656 C 1.800781 -3.597656 1.753906 -3.59375 1.714844 -3.59375 L 1.714844 -2.164062 L 1.855469 -2.164062 C 2.148438 -2.164062 2.363281 -2.234375 2.503906 -2.371094 C 2.644531 -2.507812 2.710938 -2.691406 2.710938 -2.925781 M 2.902344 -1.074219 C 2.902344 -1.34375 2.824219 -1.550781 2.664062 -1.691406 C 2.503906 -1.835938 2.277344 -1.90625 1.976562 -1.90625 C 1.941406 -1.90625 1.898438 -1.90625 1.839844 -1.902344 C 1.785156 -1.898438 1.742188 -1.898438 1.714844 -1.894531 L 1.714844 -0.484375 C 1.730469 -0.417969 1.78125 -0.363281 1.867188 -0.316406 C 1.953125 -0.269531 2.054688 -0.246094 2.175781 -0.246094 C 2.390625 -0.246094 2.566406 -0.320312 2.699219 -0.464844 C 2.835938 -0.609375 2.902344 -0.8125 2.902344 -1.074219 Z "/>
</g>
<g id="glyph-1-0">
<path d="M 4.425781 -2.605469 L 4.425781 -0.28125 L 4.035156 -0.28125 L 4.035156 -2.582031 C 4.035156 -2.808594 3.933594 -3.015625 3.730469 -3.199219 C 3.527344 -3.378906 3.226562 -3.472656 2.832031 -3.472656 C 2.4375 -3.472656 2.136719 -3.382812 1.933594 -3.199219 C 1.730469 -3.015625 1.628906 -2.789062 1.628906 -2.515625 L 1.628906 -0.28125 L 1.238281 -0.28125 L 1.238281 -2.515625 C 1.238281 -2.933594 1.386719 -3.257812 1.6875 -3.492188 C 1.992188 -3.722656 2.371094 -3.839844 2.832031 -3.839844 C 3.292969 -3.839844 3.671875 -3.722656 3.972656 -3.492188 C 4.277344 -3.257812 4.425781 -2.960938 4.425781 -2.605469 Z "/>
</g>
</g>
</defs>
<g fill="rgb(13.333333%, 77.254902%, 36.862745%)" fill-opacity="1">
<use xlink:href="#glyph-0-0" x="30" y="25.094727"/>
<use xlink:href="#glyph-0-1" x="34" y="25.094727"/>
</g>
<g fill="rgb(13.333333%, 77.254902%, 36.862745%)" fill-opacity="1">
<use xlink:href="#glyph-1-0" x="35" y="25.094727"/>
</g>
<g fill="rgb(13.333333%, 77.254902%, 36.862745%)" fill-opacity="1">
<use xlink:href="#glyph-0-1" x="41" y="25.094727"/>
<use xlink:href="#glyph-0-2" x="42" y="25.094727"/>
</g>
</svg>
