<?xml version="1.0" encoding="UTF-8"?>
<svg xmlns="http://www.w3.org/2000/svg" xmlns:xlink="http://www.w3.org/1999/xlink" width="1920" height="1080" viewBox="0 0 1920 1080">
<defs>
<g>
<g id="glyph-0-0">
<path d="M 5.863281 -0.101562 C 5.722656 -0.0390625 5.550781 0.015625 5.359375 0.0703125 C 5.164062 0.121094 4.957031 0.144531 4.738281 0.148438 C 4.339844 0.144531 4.046875 0.0859375 3.855469 -0.03125 C 3.667969 -0.152344 3.539062 -0.320312 3.472656 -0.542969 L 3.441406 -0.542969 C 3.332031 -0.429688 3.226562 -0.335938 3.121094 -0.257812 C 3.019531 -0.179688 2.910156 -0.113281 2.792969 -0.0585938 C 2.640625 0.0117188 2.492188 0.0664062 2.347656 0.101562 C 2.207031 0.136719 2.007812 0.15625 1.753906 0.15625 C 1.375 0.15625 1.054688 0.0429688 0.785156 -0.179688 C 0.519531 -0.402344 0.386719 -0.699219 0.386719 -1.066406 C 0.386719 -1.277344 0.414062 -1.457031 0.472656 -1.605469 C 0.53125 -1.753906 0.617188 -1.886719 0.722656 -2 C 0.820312 -2.105469 0.933594 -2.191406 1.0625 -2.257812 C 1.191406 -2.328125 1.332031 -2.390625 1.484375 -2.449219 C 1.78125 -2.558594 2.132812 -2.667969 2.542969 -2.785156 C 2.953125 -2.902344 3.253906 -3.003906 3.441406 -3.09375 L 3.441406 -3.5625 C 3.441406 -3.644531 3.4375 -3.753906 3.421875 -3.886719 C 3.410156 -4.019531 3.382812 -4.132812 3.339844 -4.222656 C 3.292969 -4.328125 3.222656 -4.414062 3.125 -4.488281 C 3.027344 -4.558594 2.898438 -4.59375 2.738281 -4.59375 C 2.597656 -4.59375 2.476562 -4.574219 2.378906 -4.535156 C 2.285156 -4.492188 2.207031 -4.453125 2.148438 -4.410156 C 2.15625 -4.34375 2.1875 -4.246094 2.230469 -4.109375 C 2.277344 -3.976562 2.300781 -3.847656 2.300781 -3.726562 C 2.300781 -3.671875 2.285156 -3.601562 2.253906 -3.519531 C 2.226562 -3.433594 2.183594 -3.367188 2.128906 -3.320312 C 2.054688 -3.253906 1.96875 -3.203125 1.875 -3.167969 C 1.78125 -3.132812 1.640625 -3.117188 1.449219 -3.117188 C 1.171875 -3.117188 0.964844 -3.179688 0.824219 -3.3125 C 0.683594 -3.445312 0.613281 -3.617188 0.617188 -3.828125 C 0.613281 -4.011719 0.6875 -4.175781 0.832031 -4.320312 C 0.976562 -4.464844 1.152344 -4.582031 1.363281 -4.679688 C 1.566406 -4.773438 1.804688 -4.851562 2.070312 -4.90625 C 2.335938 -4.957031 2.585938 -4.984375 2.8125 -4.984375 C 3.128906 -4.984375 3.417969 -4.964844 3.679688 -4.929688 C 3.945312 -4.890625 4.183594 -4.8125 4.394531 -4.695312 C 4.597656 -4.582031 4.757812 -4.417969 4.875 -4.203125 C 4.996094 -3.984375 5.054688 -3.703125 5.054688 -3.355469 C 5.054688 -2.988281 5.046875 -2.550781 5.03125 -2.046875 C 5.015625 -1.542969 5.007812 -1.210938 5.007812 -1.050781 C 5.007812 -0.902344 5.03125 -0.789062 5.074219 -0.703125 C 5.121094 -0.617188 5.1875 -0.554688 5.277344 -0.511719 C 5.332031 -0.488281 5.421875 -0.472656 5.539062 -0.464844 C 5.660156 -0.460938 5.765625 -0.460938 5.863281 -0.460938 L 5.863281 -0.101562 M 3.441406 -2.648438 C 3.257812 -2.585938 3.078125 -2.511719 2.898438 -2.433594 C 2.71875 -2.355469 2.570312 -2.269531 2.457031 -2.179688 C 2.335938 -2.089844 2.242188 -1.972656 2.171875 -1.832031 C 2.105469 -1.691406 2.070312 -1.523438 2.070312 -1.328125 C 2.070312 -1.074219 2.128906 -0.890625 2.246094 -0.777344 C 2.359375 -0.664062 2.503906 -0.605469 2.671875 -0.605469 C 2.851562 -0.605469 3 -0.640625 3.117188 -0.714844 C 3.234375 -0.789062 3.335938 -0.878906 3.421875 -0.988281 Z "/>
</g>
<g id="glyph-0-1">
<path d="M 3.265625 0 L 0.191406 0 L 0.191406 -0.355469 C 0.277344 -0.363281 0.359375 -0.371094 0.4375 -0.382812 C 0.519531 -0.390625 0.589844 -0.40625 0.652344 -0.429688 C 0.757812 -0.46875 0.828125 -0.523438 0.867188 -0.597656 C 0.902344 -0.671875 0.921875 -0.769531 0.921875 -0.890625 L 0.921875 -6.296875 C 0.921875 -6.421875 0.898438 -6.539062 0.847656 -6.644531 C 0.796875 -6.75 0.730469 -6.828125 0.644531 -6.882812 C 0.578125 -6.925781 0.480469 -6.96875 0.347656 -7.007812 C 0.21875 -7.046875 0.101562 -7.070312 0 -7.074219 L 0 -7.429688 L 2.460938 -7.558594 L 2.535156 -7.480469 L 2.535156 -0.953125 C 2.535156 -0.832031 2.554688 -0.734375 2.597656 -0.660156 C 2.640625 -0.585938 2.710938 -0.527344 2.804688 -0.484375 C 2.871094 -0.453125 2.9375 -0.429688 3.011719 -0.40625 C 3.082031 -0.382812 3.167969 -0.367188 3.265625 -0.355469 Z "/>
</g>
<g id="glyph-0-2">
</g>
<g id="glyph-0-3">
<path d="M 4.902344 -6.726562 C 4.902344 -6.648438 4.890625 -6.558594 4.863281 -6.460938 C 4.835938 -6.363281 4.796875 -6.28125 4.734375 -6.210938 C 4.667969 -6.128906 4.589844 -6.066406 4.507812 -6.023438 C 4.421875 -5.984375 4.296875 -5.960938 4.125 -5.960938 C 3.867188 -5.960938 3.667969 -6.050781 3.519531 -6.230469 C 3.375 -6.410156 3.21875 -6.707031 3.050781 -7.125 C 2.921875 -7.070312 2.816406 -6.925781 2.734375 -6.695312 C 2.652344 -6.464844 2.613281 -5.96875 2.613281 -5.210938 L 2.613281 -4.824219 L 3.960938 -4.824219 L 3.960938 -4.292969 L 2.621094 -4.292969 L 2.621094 -0.933594 C 2.621094 -0.804688 2.652344 -0.707031 2.710938 -0.636719 C 2.769531 -0.566406 2.84375 -0.515625 2.9375 -0.484375 C 3.015625 -0.457031 3.121094 -0.433594 3.246094 -0.40625 C 3.375 -0.382812 3.488281 -0.367188 3.589844 -0.355469 L 3.589844 0 L 0.289062 0 L 0.289062 -0.355469 C 0.375 -0.363281 0.457031 -0.371094 0.535156 -0.378906 C 0.617188 -0.390625 0.6875 -0.40625 0.75 -0.429688 C 0.855469 -0.46875 0.925781 -0.523438 0.964844 -0.597656 C 1 -0.671875 1.019531 -0.769531 1.019531 -0.886719 L 1.019531 -4.292969 L 0.03125 -4.292969 L 0.03125 -4.824219 L 1.019531 -4.824219 C 1.019531 -5.171875 1.070312 -5.507812 1.171875 -5.835938 C 1.273438 -6.164062 1.429688 -6.453125 1.640625 -6.710938 C 1.84375 -6.964844 2.117188 -7.167969 2.453125 -7.324219 C 2.785156 -7.480469 3.179688 -7.558594 3.632812 -7.558594 C 4.035156 -7.558594 4.347656 -7.480469 4.570312 -7.328125 C 4.792969 -7.175781 4.902344 -6.976562 4.902344 -6.726562 Z "/>
</g>
<g id="glyph-0-4">
<path d="M 3.367188 0 L 0.28125 0 L 0.28125 -0.355469 C 0.367188 -0.363281 0.449219 -0.371094 0.53125 -0.382812 C 0.613281 -0.390625 0.683594 -0.40625 0.742188 -0.429688 C 0.847656 -0.46875 0.917969 -0.523438 0.960938 -0.597656 C 1.003906 -0.671875 1.023438 -0.769531 1.023438 -0.890625 L 1.023438 -3.730469 C 1.023438 -3.84375 1 -3.945312 0.945312 -4.03125 C 0.894531 -4.117188 0.828125 -4.1875 0.75 -4.238281 C 0.695312 -4.277344 0.605469 -4.316406 0.484375 -4.351562 C 0.367188 -4.386719 0.257812 -4.410156 0.160156 -4.417969 L 0.160156 -4.773438 L 2.554688 -4.902344 L 2.625 -4.828125 L 2.625 -0.953125 C 2.625 -0.839844 2.652344 -0.742188 2.699219 -0.660156 C 2.75 -0.582031 2.820312 -0.523438 2.910156 -0.484375 C 2.976562 -0.453125 3.046875 -0.429688 3.125 -0.40625 C 3.203125 -0.382812 3.285156 -0.367188 3.367188 -0.355469 L 3.367188 0 M 2.65625 -6.660156 C 2.65625 -6.414062 2.5625 -6.203125 2.371094 -6.027344 C 2.179688 -5.855469 1.953125 -5.765625 1.695312 -5.765625 C 1.429688 -5.765625 1.203125 -5.855469 1.011719 -6.027344 C 0.824219 -6.203125 0.726562 -6.414062 0.726562 -6.660156 C 0.726562 -6.90625 0.824219 -7.117188 1.011719 -7.296875 C 1.203125 -7.46875 1.429688 -7.558594 1.695312 -7.558594 C 1.957031 -7.558594 2.183594 -7.46875 2.375 -7.296875 C 2.5625 -7.117188 2.65625 -6.90625 2.65625 -6.660156 Z "/>
</g>
<g id="glyph-0-5">
<path d="M 6.726562 0 L 3.792969 0 L 3.792969 -0.355469 C 3.855469 -0.363281 3.929688 -0.371094 4.019531 -0.382812 C 4.105469 -0.390625 4.171875 -0.40625 4.21875 -0.429688 C 4.285156 -0.464844 4.335938 -0.515625 4.367188 -0.585938 C 4.394531 -0.65625 4.410156 -0.753906 4.410156 -0.890625 L 4.410156 -3.171875 C 4.410156 -3.507812 4.347656 -3.753906 4.226562 -3.921875 C 4.101562 -4.089844 3.921875 -4.175781 3.683594 -4.175781 C 3.554688 -4.175781 3.433594 -4.15625 3.320312 -4.117188 C 3.207031 -4.078125 3.097656 -4.019531 2.988281 -3.945312 C 2.894531 -3.878906 2.820312 -3.8125 2.761719 -3.746094 C 2.703125 -3.675781 2.65625 -3.617188 2.617188 -3.5625 L 2.617188 -0.941406 C 2.617188 -0.828125 2.632812 -0.734375 2.664062 -0.65625 C 2.699219 -0.582031 2.753906 -0.523438 2.828125 -0.484375 C 2.878906 -0.453125 2.945312 -0.429688 3.023438 -0.40625 C 3.101562 -0.382812 3.175781 -0.367188 3.25 -0.355469 L 3.25 0 L 0.28125 0 L 0.28125 -0.355469 C 0.363281 -0.363281 0.445312 -0.371094 0.53125 -0.382812 C 0.613281 -0.394531 0.683594 -0.410156 0.742188 -0.429688 C 0.847656 -0.464844 0.917969 -0.519531 0.957031 -0.59375 C 0.996094 -0.671875 1.015625 -0.769531 1.015625 -0.890625 L 1.015625 -3.730469 C 1.015625 -3.832031 0.988281 -3.929688 0.9375 -4.027344 C 0.886719 -4.125 0.816406 -4.207031 0.734375 -4.265625 C 0.671875 -4.304688 0.601562 -4.339844 0.511719 -4.367188 C 0.421875 -4.390625 0.320312 -4.410156 0.214844 -4.417969 L 0.214844 -4.773438 L 2.542969 -4.902344 L 2.617188 -4.828125 L 2.617188 -4.121094 L 2.636719 -4.121094 C 2.726562 -4.203125 2.839844 -4.300781 2.96875 -4.414062 C 3.097656 -4.527344 3.21875 -4.621094 3.328125 -4.691406 C 3.449219 -4.769531 3.609375 -4.835938 3.804688 -4.890625 C 4 -4.949219 4.207031 -4.976562 4.429688 -4.976562 C 4.960938 -4.976562 5.355469 -4.824219 5.621094 -4.523438 C 5.886719 -4.222656 6.019531 -3.824219 6.019531 -3.324219 L 6.019531 -0.933594 C 6.019531 -0.8125 6.039062 -0.714844 6.074219 -0.644531 C 6.109375 -0.574219 6.175781 -0.515625 6.273438 -0.472656 C 6.328125 -0.449219 6.390625 -0.429688 6.46875 -0.40625 C 6.542969 -0.382812 6.632812 -0.367188 6.726562 -0.355469 Z "/>
</g>
<g id="glyph-0-6">
<path d="M 6.59375 -0.101562 L 4.183594 0.0390625 L 4.109375 -0.03125 L 4.109375 -0.476562 L 4.078125 -0.488281 C 3.917969 -0.316406 3.703125 -0.164062 3.429688 -0.0351562 C 3.160156 0.09375 2.886719 0.15625 2.609375 0.15625 C 1.953125 0.15625 1.410156 -0.0898438 0.984375 -0.578125 C 0.558594 -1.0625 0.347656 -1.695312 0.347656 -2.46875 C 0.347656 -3.15625 0.585938 -3.746094 1.0625 -4.238281 C 1.539062 -4.730469 2.113281 -4.976562 2.789062 -4.976562 C 3.054688 -4.976562 3.308594 -4.945312 3.539062 -4.886719 C 3.773438 -4.824219 3.960938 -4.753906 4.101562 -4.671875 L 4.101562 -6.269531 C 4.101562 -6.390625 4.078125 -6.503906 4.027344 -6.609375 C 3.980469 -6.714844 3.914062 -6.796875 3.832031 -6.855469 C 3.730469 -6.925781 3.605469 -6.976562 3.453125 -7.007812 C 3.304688 -7.039062 3.152344 -7.0625 3 -7.074219 L 3 -7.429688 L 5.640625 -7.558594 L 5.710938 -7.480469 L 5.710938 -1.078125 C 5.710938 -0.957031 5.734375 -0.851562 5.773438 -0.765625 C 5.8125 -0.683594 5.878906 -0.617188 5.96875 -0.566406 C 6.039062 -0.53125 6.136719 -0.503906 6.269531 -0.488281 C 6.398438 -0.472656 6.507812 -0.460938 6.59375 -0.460938 L 6.59375 -0.101562 M 4.101562 -0.972656 L 4.101562 -3.730469 C 4.078125 -3.804688 4.046875 -3.886719 4.007812 -3.980469 C 3.964844 -4.070312 3.910156 -4.15625 3.839844 -4.238281 C 3.773438 -4.304688 3.6875 -4.367188 3.578125 -4.417969 C 3.46875 -4.472656 3.347656 -4.496094 3.210938 -4.496094 C 2.886719 -4.496094 2.621094 -4.3125 2.410156 -3.945312 C 2.203125 -3.578125 2.101562 -3.058594 2.101562 -2.386719 C 2.101562 -2.125 2.117188 -1.886719 2.15625 -1.675781 C 2.191406 -1.46875 2.257812 -1.277344 2.351562 -1.101562 C 2.445312 -0.929688 2.566406 -0.796875 2.714844 -0.699219 C 2.863281 -0.601562 3.042969 -0.550781 3.25 -0.550781 C 3.445312 -0.550781 3.609375 -0.589844 3.742188 -0.667969 C 3.871094 -0.742188 3.992188 -0.84375 4.101562 -0.972656 Z "/>
</g>
<g id="glyph-0-7">
<path d="M 5.53125 -1.167969 C 5.417969 -0.980469 5.28125 -0.804688 5.121094 -0.640625 C 4.957031 -0.476562 4.773438 -0.335938 4.570312 -0.21875 C 4.351562 -0.0976562 4.132812 -0.00390625 3.910156 0.0625 C 3.6875 0.125 3.429688 0.15625 3.140625 0.15625 C 2.65625 0.15625 2.242188 0.0859375 1.890625 -0.046875 C 1.542969 -0.183594 1.253906 -0.371094 1.023438 -0.601562 C 0.796875 -0.832031 0.628906 -1.105469 0.515625 -1.417969 C 0.402344 -1.734375 0.347656 -2.074219 0.347656 -2.441406 C 0.347656 -2.773438 0.40625 -3.089844 0.53125 -3.394531 C 0.652344 -3.699219 0.824219 -3.972656 1.050781 -4.210938 C 1.269531 -4.441406 1.550781 -4.628906 1.886719 -4.769531 C 2.222656 -4.914062 2.601562 -4.984375 3.015625 -4.984375 C 3.472656 -4.984375 3.847656 -4.929688 4.140625 -4.820312 C 4.433594 -4.707031 4.675781 -4.554688 4.867188 -4.359375 C 5.054688 -4.175781 5.1875 -3.957031 5.273438 -3.703125 C 5.359375 -3.453125 5.398438 -3.1875 5.398438 -2.910156 L 5.398438 -2.59375 L 2.101562 -2.59375 C 2.101562 -1.925781 2.226562 -1.417969 2.484375 -1.070312 C 2.742188 -0.722656 3.152344 -0.546875 3.710938 -0.546875 C 4.015625 -0.546875 4.292969 -0.628906 4.535156 -0.796875 C 4.78125 -0.964844 4.988281 -1.179688 5.160156 -1.4375 L 5.53125 -1.167969 M 3.667969 -3.023438 C 3.667969 -3.21875 3.65625 -3.417969 3.636719 -3.625 C 3.617188 -3.828125 3.585938 -3.996094 3.535156 -4.125 C 3.480469 -4.277344 3.402344 -4.394531 3.308594 -4.472656 C 3.210938 -4.550781 3.089844 -4.589844 2.945312 -4.589844 C 2.695312 -4.589844 2.492188 -4.460938 2.34375 -4.210938 C 2.195312 -3.953125 2.113281 -3.554688 2.101562 -3.003906 Z "/>
</g>
<g id="glyph-0-8">
<path d="M 2.542969 0.164062 C 2.226562 0.164062 1.917969 0.121094 1.617188 0.0273438 C 1.316406 -0.0664062 1.085938 -0.164062 0.917969 -0.269531 L 0.773438 0.0625 L 0.390625 0.0625 L 0.328125 -1.757812 L 0.683594 -1.757812 C 0.734375 -1.609375 0.8125 -1.445312 0.929688 -1.261719 C 1.042969 -1.078125 1.171875 -0.914062 1.320312 -0.765625 C 1.472656 -0.621094 1.644531 -0.496094 1.84375 -0.394531 C 2.039062 -0.292969 2.25 -0.242188 2.476562 -0.242188 C 2.773438 -0.242188 2.992188 -0.300781 3.136719 -0.417969 C 3.28125 -0.53125 3.355469 -0.710938 3.355469 -0.953125 C 3.355469 -1.082031 3.320312 -1.191406 3.257812 -1.273438 C 3.191406 -1.359375 3.101562 -1.433594 2.988281 -1.492188 C 2.859375 -1.558594 2.722656 -1.613281 2.570312 -1.660156 C 2.417969 -1.707031 2.234375 -1.761719 2.011719 -1.828125 C 1.789062 -1.890625 1.601562 -1.957031 1.441406 -2.023438 C 1.285156 -2.089844 1.121094 -2.195312 0.953125 -2.339844 C 0.804688 -2.464844 0.6875 -2.617188 0.601562 -2.796875 C 0.511719 -2.976562 0.46875 -3.191406 0.46875 -3.4375 C 0.46875 -3.898438 0.660156 -4.265625 1.046875 -4.550781 C 1.433594 -4.835938 1.9375 -4.976562 2.5625 -4.976562 C 2.859375 -4.976562 3.132812 -4.945312 3.382812 -4.886719 C 3.628906 -4.824219 3.839844 -4.757812 4.007812 -4.6875 L 4.109375 -4.976562 L 4.484375 -4.976562 L 4.5625 -3.3125 L 4.21875 -3.3125 C 4.105469 -3.648438 3.910156 -3.941406 3.632812 -4.1875 C 3.355469 -4.433594 3.058594 -4.554688 2.738281 -4.554688 C 2.488281 -4.554688 2.292969 -4.503906 2.148438 -4.398438 C 2.003906 -4.296875 1.933594 -4.148438 1.933594 -3.964844 C 1.933594 -3.71875 2.039062 -3.539062 2.246094 -3.429688 C 2.457031 -3.316406 2.75 -3.210938 3.128906 -3.117188 C 3.710938 -2.964844 4.136719 -2.761719 4.40625 -2.503906 C 4.675781 -2.242188 4.808594 -1.914062 4.808594 -1.515625 C 4.808594 -0.980469 4.601562 -0.566406 4.183594 -0.273438 C 3.765625 0.0195312 3.21875 0.164062 2.542969 0.164062 Z "/>
</g>
<g id="glyph-0-9">
<path d="M 9.980469 0 L 7.078125 0 L 7.078125 -0.355469 C 7.152344 -0.367188 7.226562 -0.375 7.304688 -0.382812 C 7.378906 -0.386719 7.445312 -0.402344 7.496094 -0.429688 C 7.566406 -0.460938 7.613281 -0.515625 7.632812 -0.59375 C 7.652344 -0.667969 7.660156 -0.769531 7.660156 -0.890625 L 7.660156 -3.167969 C 7.660156 -3.503906 7.601562 -3.753906 7.480469 -3.921875 C 7.363281 -4.089844 7.191406 -4.175781 6.96875 -4.175781 C 6.832031 -4.175781 6.707031 -4.152344 6.597656 -4.109375 C 6.488281 -4.066406 6.386719 -4.011719 6.296875 -3.945312 C 6.199219 -3.875 6.125 -3.808594 6.074219 -3.742188 C 6.023438 -3.671875 5.976562 -3.613281 5.941406 -3.5625 L 5.941406 -0.941406 C 5.941406 -0.824219 5.957031 -0.730469 5.984375 -0.65625 C 6.011719 -0.582031 6.0625 -0.527344 6.136719 -0.484375 C 6.1875 -0.453125 6.246094 -0.429688 6.3125 -0.40625 C 6.378906 -0.382812 6.449219 -0.367188 6.523438 -0.355469 L 6.523438 0 L 3.75 0 L 3.75 -0.355469 C 3.8125 -0.363281 3.886719 -0.371094 3.972656 -0.382812 C 4.058594 -0.390625 4.125 -0.40625 4.167969 -0.429688 C 4.234375 -0.464844 4.277344 -0.515625 4.300781 -0.585938 C 4.320312 -0.65625 4.332031 -0.753906 4.332031 -0.890625 L 4.332031 -3.167969 C 4.332031 -3.503906 4.269531 -3.753906 4.152344 -3.921875 C 4.03125 -4.089844 3.863281 -4.175781 3.640625 -4.175781 C 3.5 -4.175781 3.375 -4.152344 3.265625 -4.109375 C 3.15625 -4.066406 3.054688 -4.011719 2.964844 -3.945312 C 2.871094 -3.875 2.796875 -3.808594 2.746094 -3.742188 C 2.691406 -3.671875 2.648438 -3.613281 2.613281 -3.5625 L 2.613281 -0.941406 C 2.613281 -0.828125 2.625 -0.734375 2.65625 -0.660156 C 2.6875 -0.585938 2.738281 -0.527344 2.8125 -0.484375 C 2.863281 -0.453125 2.925781 -0.429688 2.992188 -0.40625 C 3.058594 -0.382812 3.128906 -0.367188 3.203125 -0.355469 L 3.203125 0 L 0.277344 0 L 0.277344 -0.355469 C 0.363281 -0.363281 0.445312 -0.371094 0.527344 -0.382812 C 0.609375 -0.390625 0.679688 -0.40625 0.738281 -0.429688 C 0.839844 -0.46875 0.914062 -0.523438 0.953125 -0.597656 C 0.992188 -0.671875 1.011719 -0.769531 1.011719 -0.890625 L 1.011719 -3.730469 C 1.011719 -3.835938 0.984375 -3.9375 0.929688 -4.035156 C 0.871094 -4.136719 0.804688 -4.210938 0.726562 -4.265625 C 0.667969 -4.304688 0.59375 -4.339844 0.503906 -4.367188 C 0.414062 -4.390625 0.316406 -4.410156 0.210938 -4.417969 L 0.210938 -4.773438 L 2.539062 -4.902344 L 2.613281 -4.828125 L 2.613281 -4.140625 L 2.632812 -4.140625 C 2.722656 -4.222656 2.832031 -4.320312 2.957031 -4.429688 C 3.082031 -4.542969 3.199219 -4.632812 3.3125 -4.703125 C 3.429688 -4.78125 3.585938 -4.84375 3.773438 -4.898438 C 3.964844 -4.949219 4.167969 -4.976562 4.394531 -4.976562 C 4.765625 -4.976562 5.074219 -4.894531 5.324219 -4.734375 C 5.574219 -4.574219 5.75 -4.359375 5.855469 -4.09375 L 5.898438 -4.09375 C 5.992188 -4.179688 6.109375 -4.28125 6.246094 -4.402344 C 6.382812 -4.519531 6.507812 -4.617188 6.621094 -4.6875 C 6.75 -4.769531 6.910156 -4.835938 7.105469 -4.890625 C 7.304688 -4.949219 7.515625 -4.976562 7.738281 -4.976562 C 8.230469 -4.976562 8.609375 -4.832031 8.875 -4.539062 C 9.140625 -4.25 9.273438 -3.839844 9.273438 -3.304688 L 9.273438 -0.933594 C 9.273438 -0.8125 9.289062 -0.714844 9.328125 -0.640625 C 9.363281 -0.570312 9.425781 -0.511719 9.523438 -0.472656 C 9.574219 -0.449219 9.636719 -0.429688 9.714844 -0.40625 C 9.789062 -0.382812 9.878906 -0.367188 9.980469 -0.355469 Z "/>
</g>
<g id="glyph-0-10">
<path d="M 3.914062 -0.226562 C 3.707031 -0.132812 3.484375 -0.0507812 3.246094 0.0234375 C 3.007812 0.09375 2.71875 0.132812 2.378906 0.132812 C 1.871094 0.132812 1.492188 0.0078125 1.246094 -0.238281 C 1 -0.484375 0.878906 -0.839844 0.878906 -1.296875 L 0.878906 -4.292969 L 0 -4.292969 L 0 -4.824219 L 0.898438 -4.824219 L 0.898438 -6.304688 L 2.480469 -6.304688 L 2.480469 -4.824219 L 3.851562 -4.824219 L 3.851562 -4.292969 L 2.492188 -4.292969 L 2.492188 -1.621094 C 2.488281 -1.238281 2.542969 -0.96875 2.648438 -0.808594 C 2.753906 -0.652344 2.945312 -0.570312 3.21875 -0.570312 C 3.308594 -0.570312 3.429688 -0.578125 3.585938 -0.589844 C 3.746094 -0.605469 3.855469 -0.617188 3.914062 -0.632812 Z "/>
</g>
<g id="glyph-0-11">
<path d="M 5.148438 -3.949219 C 5.148438 -3.703125 5.070312 -3.484375 4.917969 -3.296875 C 4.765625 -3.109375 4.5625 -3.015625 4.3125 -3.015625 C 4.074219 -3.015625 3.871094 -3.078125 3.707031 -3.199219 C 3.542969 -3.316406 3.460938 -3.492188 3.460938 -3.726562 C 3.460938 -3.839844 3.46875 -3.929688 3.484375 -3.992188 C 3.503906 -4.054688 3.515625 -4.113281 3.53125 -4.171875 C 3.378906 -4.164062 3.222656 -4.113281 3.054688 -4.015625 C 2.890625 -3.917969 2.742188 -3.789062 2.617188 -3.628906 L 2.617188 -0.945312 C 2.617188 -0.832031 2.636719 -0.738281 2.671875 -0.664062 C 2.707031 -0.589844 2.765625 -0.53125 2.851562 -0.488281 C 2.921875 -0.453125 3.039062 -0.421875 3.199219 -0.398438 C 3.363281 -0.375 3.476562 -0.359375 3.550781 -0.355469 L 3.550781 0 L 0.28125 0 L 0.28125 -0.355469 C 0.363281 -0.363281 0.445312 -0.371094 0.53125 -0.382812 C 0.613281 -0.394531 0.683594 -0.410156 0.742188 -0.429688 C 0.847656 -0.464844 0.917969 -0.519531 0.957031 -0.59375 C 0.996094 -0.671875 1.015625 -0.769531 1.015625 -0.890625 L 1.015625 -3.730469 C 1.015625 -3.847656 0.988281 -3.953125 0.933594 -4.046875 C 0.878906 -4.136719 0.8125 -4.210938 0.734375 -4.265625 C 0.671875 -4.304688 0.601562 -4.339844 0.511719 -4.367188 C 0.421875 -4.390625 0.320312 -4.410156 0.214844 -4.417969 L 0.214844 -4.773438 L 2.542969 -4.902344 L 2.617188 -4.828125 L 2.617188 -4.121094 L 2.636719 -4.121094 C 2.859375 -4.382812 3.101562 -4.585938 3.351562 -4.734375 C 3.605469 -4.882812 3.867188 -4.957031 4.140625 -4.957031 C 4.445312 -4.957031 4.6875 -4.863281 4.871094 -4.675781 C 5.054688 -4.488281 5.148438 -4.246094 5.148438 -3.949219 Z "/>
</g>
</g>
</defs>
<g fill="rgb(98.039216%, 80%, 8.235294%)" fill-opacity="1">
<use xlink:href="#glyph-0-0" x="30" y="29.169922"/>
<use xlink:href="#glyph-0-1" x="36" y="29.169922"/>
<use xlink:href="#glyph-0-2" x="39" y="29.169922"/>
<use xlink:href="#glyph-0-3" x="42" y="29.169922"/>
<use xlink:href="#glyph-0-4" x="46" y="29.169922"/>
<use xlink:href="#glyph-0-5" x="50" y="29.169922"/>
<use xlink:href="#glyph-0-0" x="57" y="29.169922"/>
<use xlink:href="#glyph-0-1" x="63" y="29.169922"/>
<use xlink:href="#glyph-0-2" x="66" y="29.169922"/>
<use xlink:href="#glyph-0-6" x="69" y="29.169922"/>
<use xlink:href="#glyph-0-7" x="76" y="29.169922"/>
<use xlink:href="#glyph-0-1" x="82" y="29.169922"/>
<use xlink:href="#glyph-0-2" x="85" y="29.169922"/>
<use xlink:href="#glyph-0-8" x="88" y="29.169922"/>
<use xlink:href="#glyph-0-7" x="93" y="29.169922"/>
<use xlink:href="#glyph-0-9" x="99" y="29.169922"/>
<use xlink:href="#glyph-0-7" x="109" y="29.169922"/>
<use xlink:href="#glyph-0-8" x="115" y="29.169922"/>
<use xlink:href="#glyph-0-10" x="120" y="29.169922"/>
<use xlink:href="#glyph-0-11" x="124" y="29.169922"/>
<use xlink:href="#glyph-0-7" x="129" y="29.169922"/>
</g>
</svg>
